<svg width="16" height="16" viewBox="0 0 16 16" fill="none" xmlns="http://www.w3.org/2000/svg">
<path d="M6.66666 8.00033C6.66666 8.35395 6.80713 8.69309 7.05718 8.94313C7.30723 9.19318 7.64637 9.33366 7.99999 9.33366C8.35361 9.33366 8.69275 9.19318 8.9428 8.94313C9.19285 8.69309 9.33332 8.35395 9.33332 8.00033C9.33332 7.6467 9.19285 7.30757 8.9428 7.05752C8.69275 6.80747 8.35361 6.66699 7.99999 6.66699C7.64637 6.66699 7.30723 6.80747 7.05718 7.05752C6.80713 7.30757 6.66666 7.6467 6.66666 8.00033Z" stroke="#B3B3B3" stroke-linecap="round" stroke-linejoin="round"/>
<path d="M14 8C12.4 10.6667 10.4 12 8 12C5.6 12 3.6 10.6667 2 8C3.6 5.33333 5.6 4 8 4C10.4 4 12.4 5.33333 14 8Z" stroke="#B3B3B3" stroke-linecap="round" stroke-linejoin="round"/>
</svg>
