<svg width="48" height="48" viewBox="0 0 48 48" fill="none" xmlns="http://www.w3.org/2000/svg">
<path d="M34.9997 13L32.9997 15M5.99969 42C4.66569 40.666 12.5237 29.528 29.5697 8.582C30.1773 7.83585 30.9322 7.22297 31.7872 6.78164C32.6423 6.34031 33.5791 6.08001 34.5393 6.01698C35.4995 5.95396 36.4623 6.08957 37.3677 6.41535C38.2731 6.74113 39.1017 7.25008 39.8015 7.91042C40.5014 8.57075 41.0577 9.36829 41.4355 10.2532C41.8134 11.1382 42.0047 12.0915 41.9976 13.0537C41.9905 14.0159 41.785 14.9664 41.3941 15.8456C41.0033 16.7249 40.4353 17.5141 39.7257 18.164C18.5757 35.388 7.33369 43.334 5.99969 42Z" stroke="#333333" stroke-width="3" stroke-linecap="round" stroke-linejoin="round"/>
<path d="M34 14C29.334 8.666 27 6 24 6C21 6 20 8 20 10C20 18 36.322 26.812 32 32C29.888 34.536 25.274 34.57 20.5 33.616M11.478 30.85C8.692 29.72 4 27 4 24M39 19L42 22" stroke="#333333" stroke-width="3" stroke-linecap="round" stroke-linejoin="round"/>
</svg>
