<svg width="48" height="48" viewBox="0 0 48 48" fill="none" xmlns="http://www.w3.org/2000/svg">
<path d="M14 40H34M18 32V40M30 32V40M6 10C6 9.46957 6.21071 8.96086 6.58579 8.58579C6.96086 8.21071 7.46957 8 8 8H40C40.5304 8 41.0391 8.21071 41.4142 8.58579C41.7893 8.96086 42 9.46957 42 10V30C42 30.5304 41.7893 31.0391 41.4142 31.4142C41.0391 31.7893 40.5304 32 40 32H8C7.46957 32 6.96086 31.7893 6.58579 31.4142C6.21071 31.0391 6 30.5304 6 30V10Z" stroke="#333333" stroke-width="3" stroke-linecap="round" stroke-linejoin="round"/>
</svg>
