<svg width="48" height="48" viewBox="0 0 48 48" fill="none" xmlns="http://www.w3.org/2000/svg">
<path d="M22 10C22 12.21 19.314 14 16 14C12.686 14 10 12.21 10 10C10 7.79 12.686 6 16 6C19.314 6 22 7.79 22 10ZM22 10H40M8 22H40C40.5304 22 41.0391 22.2107 41.4142 22.5858C41.7893 22.9609 42 23.4696 42 24V25C42 28 36.966 36.146 34 38V40C34 40.5304 33.7893 41.0391 33.4142 41.4142C33.0391 41.7893 32.5304 42 32 42H16C15.4696 42 14.9609 41.7893 14.5858 41.4142C14.2107 41.0391 14 40.5304 14 40V38C10.626 35.892 6 28 6 25V24C6 23.4696 6.21071 22.9609 6.58579 22.5858C6.96086 22.2107 7.46957 22 8 22Z" stroke="#333333" stroke-width="3" stroke-linecap="round" stroke-linejoin="round"/>
</svg>
