<svg width="48" height="48" viewBox="0 0 48 48" fill="none" xmlns="http://www.w3.org/2000/svg">
<path d="M38 20L24 6L6 24H10V38C10 39.0609 10.4214 40.0783 11.1716 40.8284C11.9217 41.5786 12.9391 42 14 42H26" stroke="#333333" stroke-width="3" stroke-linecap="round" stroke-linejoin="round"/>
<path d="M18 42V30C18 28.9391 18.4214 27.9217 19.1716 27.1716C19.9217 26.4214 20.9391 26 22 26H26C26.774 26 27.496 26.22 28.108 26.6M42 30H37C36.2044 30 35.4413 30.3161 34.8787 30.8787C34.3161 31.4413 34 32.2044 34 33C34 33.7956 34.3161 34.5587 34.8787 35.1213C35.4413 35.6839 36.2044 36 37 36H39C39.7956 36 40.5587 36.3161 41.1213 36.8787C41.6839 37.4413 42 38.2044 42 39C42 39.7956 41.6839 40.5587 41.1213 41.1213C40.5587 41.6839 39.7956 42 39 42H34M38 42V44M38 28V30" stroke="#333333" stroke-width="3" stroke-linecap="round" stroke-linejoin="round"/>
</svg>
