<svg width="48" height="48" viewBox="0 0 48 48" fill="none" xmlns="http://www.w3.org/2000/svg">
<path d="M11.272 36.7281C12.9435 38.3996 14.9278 39.7255 17.1116 40.63C19.2955 41.5346 21.6362 42.0002 24 42.0002C26.3638 42.0002 28.7045 41.5346 30.8883 40.63C33.0722 39.7255 35.0565 38.3996 36.728 36.7281C38.3995 35.0566 39.7253 33.0723 40.6299 30.8885C41.5345 28.7046 42.0001 26.3639 42.0001 24.0001C42.0001 21.6363 41.5345 19.2956 40.6299 17.1118C39.7253 14.9279 38.3995 12.9436 36.728 11.2721C33.3523 7.89644 28.7739 6 24 6C19.2261 6 14.6477 7.89644 11.272 11.2721C7.89631 14.6478 5.99988 19.2262 5.99988 24.0001C5.99988 28.774 7.89631 33.3524 11.272 36.7281Z" stroke="#333333" stroke-width="3" stroke-linecap="round" stroke-linejoin="round"/>
<path d="M24.99 6.04004C25.1272 8.56463 24.731 11.0898 23.8272 13.4511C22.9234 15.8123 21.5323 17.9567 19.7445 19.7445C17.9567 21.5323 15.8123 22.9234 13.4511 23.8272C11.0898 24.731 8.56463 25.1272 6.04004 24.99M41.96 23.01C39.4354 22.8729 36.9103 23.2691 34.549 24.1729C32.1878 25.0767 30.0434 26.4678 28.2556 28.2556C26.4678 30.0434 25.0767 32.1878 24.1729 34.549C23.2691 36.9103 22.8729 39.4354 23.01 41.96M18 18L22 22M26 26L30 30M22 14L26 16M14 22L16 26M32 22L34 26M22 32L26 34" stroke="#333333" stroke-width="3" stroke-linecap="round" stroke-linejoin="round"/>
</svg>
