<svg width="48" height="48" viewBox="0 0 48 48" fill="none" xmlns="http://www.w3.org/2000/svg">
<path d="M6 32V20C6 18.9391 6.42143 17.9217 7.17157 17.1716C7.92172 16.4214 8.93913 16 10 16C11.0609 16 12.0783 16.4214 12.8284 17.1716C13.5786 17.9217 14 18.9391 14 20V32M6 26H14M20 16V28M20 28C20 29.0609 20.4214 30.0783 21.1716 30.8284C21.9217 31.5786 22.9391 32 24 32C25.0609 32 26.0783 31.5786 26.8284 30.8284C27.5786 30.0783 28 29.0609 28 28V26C28 24.9391 27.5786 23.9217 26.8284 23.1716C26.0783 22.4214 25.0609 22 24 22C22.9391 22 21.9217 22.4214 21.1716 23.1716C20.4214 23.9217 20 24.9391 20 26V28ZM41.464 24C41.0237 23.2375 40.3441 22.6415 39.5306 22.3046C38.7171 21.9677 37.8152 21.9086 36.9647 22.1365C36.1142 22.3644 35.3627 22.8665 34.8266 23.5651C34.2906 24.2636 34 25.1195 34 26V28C34.0002 28.8784 34.2895 29.7323 34.8233 30.4299C35.3571 31.1275 36.1057 31.63 36.9535 31.8599C37.8013 32.0897 38.7012 32.034 39.5142 31.7015C40.3273 31.369 41.0082 30.7781 41.452 30.02" stroke="#333333" stroke-width="3" stroke-linecap="round" stroke-linejoin="round"/>
</svg>
