<svg width="48" height="48" viewBox="0 0 48 48" fill="none" xmlns="http://www.w3.org/2000/svg">
<path d="M16 26V9C16 8.20435 16.3161 7.44129 16.8787 6.87868C17.4413 6.31607 18.2044 6 19 6C19.7956 6 20.5587 6.31607 21.1213 6.87868C21.6839 7.44129 22 8.20435 22 9V24M22 23V19C22 18.2044 22.3161 17.4413 22.8787 16.8787C23.4413 16.3161 24.2044 16 25 16C25.7956 16 26.5587 16.3161 27.1213 16.8787C27.6839 17.4413 28 18.2044 28 19V24M28 21C28 20.2044 28.3161 19.4413 28.8787 18.8787C29.4413 18.3161 30.2044 18 31 18C31.7956 18 32.5587 18.3161 33.1213 18.8787C33.6839 19.4413 34 20.2044 34 21V24" stroke="#333333" stroke-width="3" stroke-linecap="round" stroke-linejoin="round"/>
<path d="M34 23C34 22.2044 34.3161 21.4413 34.8787 20.8787C35.4413 20.3161 36.2044 20 37 20C37.7956 20 38.5587 20.3161 39.1213 20.8787C39.6839 21.4413 40 22.2044 40 23V32C40 35.1826 38.7357 38.2348 36.4853 40.4853C34.2348 42.7357 31.1826 44 28 44H24H24.416C22.4287 44.0003 20.4724 43.5071 18.7228 42.5646C16.9732 41.622 15.485 40.2597 14.392 38.6L14 38C13.376 37.042 11.186 33.224 7.428 26.544C7.0449 25.8631 6.94257 25.0595 7.14276 24.3043C7.34296 23.5491 7.8299 22.9018 8.5 22.5C9.21375 22.0717 10.0501 21.8942 10.8763 21.9957C11.7025 22.0972 12.4711 22.4718 13.06 23.06L16 26M10 6L8 4M8 14H6M28 6L30 4M30 12H32" stroke="#333333" stroke-width="3" stroke-linecap="round" stroke-linejoin="round"/>
</svg>
