<svg width="48" height="48" viewBox="0 0 48 48" fill="none" xmlns="http://www.w3.org/2000/svg">
<path d="M21.18 39.7604C19.1737 39.4772 17.2237 38.8834 15.4 38.0004L6 40.0004L8.6 32.2004C3.952 25.3264 5.748 16.4564 12.8 11.4524C19.852 6.45042 29.98 6.86042 36.49 12.4124C39.62 15.0824 41.448 18.5424 41.91 22.1344" stroke="#333333" stroke-width="3" stroke-linecap="round" stroke-linejoin="round"/>
<path d="M36 44.0002L42.7 37.4322C43.1109 37.0335 43.4377 36.5566 43.6612 36.0295C43.8847 35.5024 44.0003 34.9358 44.0012 34.3633C44.0022 33.7908 43.8884 33.2239 43.6666 32.6961C43.4448 32.1683 43.1196 31.6903 42.71 31.2902C41.8743 30.4729 40.7524 30.0143 39.5834 30.012C38.4145 30.0098 37.2909 30.4641 36.452 31.2782L36.004 31.7182L35.558 31.2782C34.7223 30.4615 33.6009 30.0032 32.4324 30.001C31.264 29.9987 30.1408 30.4527 29.302 31.2662C28.891 31.6648 28.564 32.1417 28.3404 32.6687C28.1167 33.1957 28.0009 33.7622 27.9998 34.3347C27.9986 34.9072 28.1122 35.4741 28.3338 36.002C28.5554 36.5299 28.8806 37.0081 29.29 37.4082L36 44.0002Z" stroke="#333333" stroke-width="3" stroke-linecap="round" stroke-linejoin="round"/>
</svg>
