<svg width="20" height="20" viewBox="0 0 20 20" fill="none" xmlns="http://www.w3.org/2000/svg">
<path d="M4.16602 10.8337C4.16602 10.3916 4.34161 9.96771 4.65417 9.65515C4.96673 9.34259 5.39065 9.16699 5.83268 9.16699H14.166C14.608 9.16699 15.032 9.34259 15.3445 9.65515C15.6571 9.96771 15.8327 10.3916 15.8327 10.8337V15.8337C15.8327 16.2757 15.6571 16.6996 15.3445 17.0122C15.032 17.3247 14.608 17.5003 14.166 17.5003H5.83268C5.39065 17.5003 4.96673 17.3247 4.65417 17.0122C4.34161 16.6996 4.16602 16.2757 4.16602 15.8337V10.8337Z" stroke="#B3B3B3" stroke-width="1.5" stroke-linecap="round" stroke-linejoin="round"/>
<path d="M6.66602 9.16667V5.83333C6.66602 4.94928 7.0172 4.10143 7.64233 3.47631C8.26745 2.85119 9.11529 2.5 9.99935 2.5C10.8834 2.5 11.7313 2.85119 12.3564 3.47631C12.9815 4.10143 13.3327 4.94928 13.3327 5.83333V9.16667M9.16602 13.3333C9.16602 13.5543 9.25381 13.7663 9.41009 13.9226C9.56637 14.0789 9.77834 14.1667 9.99935 14.1667C10.2204 14.1667 10.4323 14.0789 10.5886 13.9226C10.7449 13.7663 10.8327 13.5543 10.8327 13.3333C10.8327 13.1123 10.7449 12.9004 10.5886 12.7441C10.4323 12.5878 10.2204 12.5 9.99935 12.5C9.77834 12.5 9.56637 12.5878 9.41009 12.7441C9.25381 12.9004 9.16602 13.1123 9.16602 13.3333Z" stroke="#B3B3B3" stroke-width="1.5" stroke-linecap="round" stroke-linejoin="round"/>
</svg>
