<svg width="900" height="270" viewBox="0 0 900 270" fill="none" xmlns="http://www.w3.org/2000/svg">
<rect width="900" height="270" fill="white"/>
<rect x="25" y="36" width="37" height="34" fill="#D9D9D9"/>
<path d="M28 35.5467L34.3476 29.728L47.0415 41.364L69.2567 21L75.6044 26.8187L47.0429 53L28 35.5467Z" fill="#84B941" fill-opacity="0.99"/>
<path d="M105.08 36.89H109.07V52.97H105.08V36.89ZM107.96 43.37H112.76V46.64H107.96V43.37ZM97.13 38.69H101.42C101.42 46.16 96.8 51.35 88.61 53.63L86.99 50.45C93.68 48.62 97.13 44.99 97.13 40.7V38.69ZM88.31 38.69H99.56V41.9H88.31V38.69ZM100.07 53.33C105.68 53.33 109.37 55.52 109.37 59C109.37 62.51 105.68 64.7 100.07 64.7C94.46 64.7 90.71 62.51 90.71 59C90.71 55.52 94.46 53.33 100.07 53.33ZM100.07 56.42C96.68 56.42 94.67 57.32 94.67 59C94.67 60.71 96.68 61.61 100.07 61.61C103.46 61.61 105.47 60.71 105.47 59C105.47 57.32 103.46 56.42 100.07 56.42ZM123.738 38.72C128.118 38.72 131.388 41.57 131.388 45.56C131.388 49.58 128.118 52.43 123.738 52.43C119.388 52.43 116.058 49.58 116.058 45.56C116.058 41.57 119.388 38.72 123.738 38.72ZM123.738 42.14C121.608 42.14 119.988 43.4 119.988 45.56C119.988 47.75 121.608 49.01 123.738 49.01C125.868 49.01 127.488 47.75 127.488 45.56C127.488 43.4 125.868 42.14 123.738 42.14ZM133.998 36.86H137.988V64.73H133.998V36.86ZM115.398 59.09L114.918 55.88C119.808 55.88 126.618 55.82 132.468 54.95L132.768 57.83C126.738 59.03 120.198 59.09 115.398 59.09ZM156.587 39.98H159.887V42.32C159.887 47.57 157.337 52.31 151.997 54.05L149.957 50.93C154.577 49.43 156.587 45.83 156.587 42.32V39.98ZM157.397 39.98H160.667V42.32C160.667 45.62 162.647 49.01 167.177 50.45L165.137 53.54C159.917 51.89 157.397 47.36 157.397 42.32V39.98ZM151.007 38.87H166.127V42.02H151.007V38.87ZM168.917 36.92H172.937V56.96H168.917V36.92ZM154.427 61.01H173.627V64.19H154.427V61.01ZM154.427 55.16H158.417V62.6H154.427V55.16ZM197.324 36.89H201.104V54.29H197.324V36.89ZM193.934 43.73H198.374V46.97H193.934V43.73ZM191.564 37.43H195.284V53.39H191.564V37.43ZM177.314 39.74H190.784V42.8H177.314V39.74ZM184.094 43.7C187.574 43.7 190.094 45.68 190.094 48.56C190.094 51.44 187.574 53.39 184.094 53.39C180.614 53.39 178.094 51.44 178.094 48.56C178.094 45.68 180.614 43.7 184.094 43.7ZM184.094 46.55C182.624 46.55 181.634 47.27 181.634 48.56C181.634 49.85 182.624 50.57 184.094 50.57C185.534 50.57 186.524 49.85 186.524 48.56C186.524 47.27 185.534 46.55 184.094 46.55ZM182.084 37.16H186.014V41.84H182.084V37.16ZM191.714 54.59C197.654 54.59 201.254 56.39 201.254 59.63C201.254 62.84 197.654 64.67 191.714 64.67C185.744 64.67 182.144 62.84 182.144 59.63C182.144 56.39 185.744 54.59 191.714 54.59ZM191.714 57.56C187.994 57.56 186.134 58.19 186.134 59.63C186.134 61.04 187.994 61.7 191.714 61.7C195.404 61.7 197.264 61.04 197.264 59.63C197.264 58.19 195.404 57.56 191.714 57.56ZM225.283 53.87C231.043 53.87 234.673 55.88 234.673 59.27C234.673 62.69 231.043 64.7 225.283 64.7C219.493 64.7 215.863 62.69 215.863 59.27C215.863 55.88 219.493 53.87 225.283 53.87ZM225.283 56.99C221.743 56.99 219.823 57.71 219.823 59.27C219.823 60.86 221.743 61.61 225.283 61.61C228.823 61.61 230.713 60.86 230.713 59.27C230.713 57.71 228.823 56.99 225.283 56.99ZM230.353 36.89H234.343V53.24H230.353V36.89ZM233.233 43.34H238.033V46.64H233.233V43.34ZM213.283 38.66H217.243V42.08H222.673V38.66H226.633V51.71H213.283V38.66ZM217.243 45.17V48.59H222.673V45.17H217.243ZM241.241 38.3H245.201V41.81H250.481V38.3H254.381V51.29H241.241V38.3ZM245.201 44.84V48.11H250.481V44.84H245.201ZM253.481 43.22H260.231V46.43H253.481V43.22ZM259.331 36.89H263.321V52.1H259.331V36.89ZM244.871 53.27H248.831V55.76H259.361V53.27H263.321V64.34H244.871V53.27ZM248.831 58.82V61.16H259.361V58.82H248.831Z" fill="black"/>
<line x1="88" y1="68.5" x2="269" y2="68.5" stroke="black" stroke-width="3"/>
<path d="M41.3068 115.455V130H39.1051V117.656H39.0198L35.5397 119.929V117.827L39.169 115.455H41.3068ZM48.5173 130.135C48.1291 130.135 47.7953 129.998 47.5159 129.723C47.2366 129.444 47.0969 129.107 47.0969 128.714C47.0969 128.326 47.2366 127.995 47.5159 127.72C47.7953 127.441 48.1291 127.301 48.5173 127.301C48.9056 127.301 49.2394 127.441 49.5188 127.72C49.7981 127.995 49.9378 128.326 49.9378 128.714C49.9378 128.975 49.8715 129.214 49.7389 129.432C49.6111 129.645 49.4406 129.815 49.2276 129.943C49.0145 130.071 48.7778 130.135 48.5173 130.135ZM72.12 113.46H73.78V131.58H72.12V113.46ZM64.24 114.86C66.92 114.86 68.84 117.32 68.84 121.16C68.84 125.02 66.92 127.48 64.24 127.48C61.58 127.48 59.66 125.02 59.66 121.16C59.66 117.32 61.58 114.86 64.24 114.86ZM64.24 116.36C62.48 116.36 61.24 118.24 61.24 121.16C61.24 124.1 62.48 126.02 64.24 126.02C66.02 126.02 67.24 124.1 67.24 121.16C67.24 118.24 66.02 116.36 64.24 116.36ZM95.0514 113.48H96.7114V124.3H95.0514V113.48ZM96.2514 118.14H99.3914V119.54H96.2514V118.14ZM90.0514 114.8H91.8314C91.8314 119.44 88.6114 122.82 83.3914 124.36L82.6914 123.02C87.2914 121.66 90.0514 118.94 90.0514 115.56V114.8ZM83.4914 114.8H90.9914V116.18H83.4914V114.8ZM91.0514 124.52C94.6314 124.52 96.9114 125.84 96.9114 128.02C96.9114 130.2 94.6314 131.52 91.0514 131.52C87.4514 131.52 85.1514 130.2 85.1514 128.02C85.1514 125.84 87.4514 124.52 91.0514 124.52ZM91.0514 125.84C88.4514 125.84 86.7914 126.66 86.7914 128.02C86.7914 129.38 88.4514 130.2 91.0514 130.2C93.6514 130.2 95.3114 129.38 95.3114 128.02C95.3114 126.66 93.6514 125.84 91.0514 125.84ZM106.95 114.78C109.77 114.78 111.79 116.52 111.79 119.04C111.79 121.58 109.77 123.32 106.95 123.32C104.13 123.32 102.09 121.58 102.09 119.04C102.09 116.52 104.13 114.78 106.95 114.78ZM106.95 116.22C105.07 116.22 103.71 117.36 103.71 119.04C103.71 120.72 105.07 121.88 106.95 121.88C108.81 121.88 110.17 120.72 110.17 119.04C110.17 117.36 108.81 116.22 106.95 116.22ZM114.15 113.46H115.81V131.58H114.15V113.46ZM101.41 127.62L101.17 126.24C104.47 126.24 109.03 126.22 112.97 125.6L113.11 126.82C109.05 127.6 104.63 127.62 101.41 127.62ZM121.688 118.9H133.968V120.26H121.688V118.9ZM119.468 122.68H135.868V124.04H119.468V122.68ZM121.688 114.14H123.328V119.58H121.688V114.14ZM121.568 129.76H134.068V131.12H121.568V129.76ZM121.568 125.84H123.208V130.12H121.568V125.84ZM150.48 118.04H153.9V119.4H150.48V118.04ZM156.82 113.48H158.4V127.04H156.82V113.48ZM153.28 113.84H154.86V126.52H153.28V113.84ZM146.62 129.8H158.96V131.16H146.62V129.8ZM146.62 125.38H148.28V130.56H146.62V125.38ZM146.92 114.76H148.24V117.42C148.24 120.22 146.74 123.18 144.12 124.46L143.2 123.18C145.54 122.04 146.92 119.56 146.92 117.42V114.76ZM147.22 114.76H148.52V117.42C148.52 119.54 149.8 121.7 152.06 122.72L151.12 123.98C148.6 122.84 147.22 120.18 147.22 117.42V114.76ZM174.818 113.46H176.458V131.58H174.818V113.46ZM171.058 120.28H175.058V121.66H171.058V120.28ZM162.398 125.86H163.778C167.178 125.86 169.318 125.8 171.858 125.32L172.018 126.68C169.418 127.14 167.218 127.24 163.778 127.24H162.398V125.86ZM162.398 115.12H170.758V116.5H164.038V126.34H162.398V115.12ZM163.618 120.2H169.978V121.54H163.618V120.2ZM187.297 120.5H190.717V121.88H187.297V120.5ZM193.737 113.48H195.337V131.56H193.737V113.48ZM190.157 113.86H191.737V130.66H190.157V113.86ZM184.037 114.98C186.377 114.98 187.897 117.4 187.897 121.28C187.897 125.16 186.377 127.58 184.037 127.58C181.697 127.58 180.197 125.16 180.197 121.28C180.197 117.4 181.697 114.98 184.037 114.98ZM184.037 116.52C182.617 116.52 181.717 118.36 181.717 121.28C181.717 124.2 182.617 126.04 184.037 126.04C185.477 126.04 186.377 124.2 186.377 121.28C186.377 118.36 185.477 116.52 184.037 116.52ZM207.395 119.6H212.435V120.96H207.395V119.6ZM203.035 115.04H204.395V118.26C204.395 122.32 202.255 126.2 199.395 127.74L198.335 126.42C200.995 125.1 203.035 121.62 203.035 118.26V115.04ZM203.355 115.04H204.695V118.26C204.695 121.56 206.735 124.84 209.355 126.08L208.375 127.42C205.455 125.94 203.355 122.22 203.355 118.26V115.04ZM211.615 113.46H213.255V131.58H211.615V113.46ZM226.866 115.46H228.246V117.3C228.246 120.62 226.206 123.4 223.166 124.5L222.306 123.18C225.026 122.22 226.866 119.88 226.866 117.3V115.46ZM227.186 115.46H228.566V117.3C228.566 119.74 230.446 121.94 233.126 122.84L232.266 124.14C229.266 123.12 227.186 120.48 227.186 117.3V115.46ZM222.746 114.98H232.646V116.32H222.746V114.98ZM235.206 113.5H236.886V126.72H235.206V113.5ZM225.266 129.8H237.426V131.16H225.266V129.8ZM225.266 125.48H226.906V130.4H225.266V125.48ZM254.105 113.48H255.685V124.92H254.105V113.48ZM251.165 118.38H254.585V119.76H251.165V118.38ZM250.245 113.84H251.805V124.28H250.245V113.84ZM240.365 115.64H249.525V116.96H240.365V115.64ZM244.965 117.88C247.225 117.88 248.805 119.12 248.805 120.98C248.805 122.86 247.225 124.08 244.965 124.08C242.685 124.08 241.105 122.86 241.105 120.98C241.105 119.12 242.685 117.88 244.965 117.88ZM244.965 119.12C243.545 119.12 242.585 119.86 242.585 120.98C242.585 122.12 243.545 122.84 244.965 122.84C246.365 122.84 247.325 122.12 247.325 120.98C247.325 119.86 246.365 119.12 244.965 119.12ZM244.145 113.62H245.765V116.38H244.145V113.62ZM249.765 125.24C253.525 125.24 255.785 126.36 255.785 128.38C255.785 130.38 253.525 131.52 249.765 131.52C245.965 131.52 243.725 130.38 243.725 128.38C243.725 126.36 245.965 125.24 249.765 125.24ZM249.765 126.52C246.985 126.52 245.365 127.18 245.365 128.38C245.365 129.58 246.985 130.26 249.765 130.26C252.505 130.26 254.145 129.58 254.145 128.38C254.145 127.18 252.505 126.52 249.765 126.52ZM260.283 121.26H269.543V122.62H260.283V121.26ZM263.983 122.34H265.663V126.5H263.983V122.34ZM260.283 115.18H269.443V116.54H261.943V121.74H260.283V115.18ZM271.923 113.46H273.583V131.58H271.923V113.46ZM259.183 127.66L258.943 126.28C262.483 126.26 266.923 126.22 270.743 125.76L270.883 127C266.923 127.6 262.603 127.68 259.183 127.66ZM279.462 118.9H291.742V120.26H279.462V118.9ZM277.242 122.68H293.642V124.04H277.242V122.68ZM279.462 114.14H281.102V119.58H279.462V114.14ZM279.342 129.76H291.842V131.12H279.342V129.76ZM279.342 125.84H280.982V130.12H279.342V125.84ZM429.777 113.48H431.457V123.18H429.777V113.48ZM419.797 124.08H421.437V126.28H429.817V124.08H431.457V131.32H419.797V124.08ZM421.437 127.6V129.98H429.817V127.6H421.437ZM421.757 114.34C424.497 114.34 426.457 116.04 426.457 118.5C426.457 120.98 424.497 122.68 421.757 122.68C419.017 122.68 417.037 120.98 417.037 118.5C417.037 116.04 419.017 114.34 421.757 114.34ZM421.757 115.72C419.957 115.72 418.657 116.86 418.657 118.5C418.657 120.14 419.957 121.28 421.757 121.28C423.557 121.28 424.857 120.14 424.857 118.5C424.857 116.86 423.557 115.72 421.757 115.72ZM448.175 113.48H449.835V131.56H448.175V113.48ZM436.175 115.24H437.815V126.44H436.175V115.24ZM436.175 125.46H437.655C440.395 125.46 443.255 125.26 446.315 124.62L446.515 126.04C443.375 126.68 440.515 126.9 437.655 126.9H436.175V125.46ZM465.654 113.46H467.334V131.58H465.654V113.46ZM466.934 120.6H470.294V122H466.934V120.6ZM454.194 125.68H455.614C458.954 125.68 461.294 125.56 463.994 125.06L464.174 126.46C461.394 126.98 459.014 127.08 455.614 127.08H454.194V125.68ZM454.194 115.22H462.594V116.58H455.834V126.3H454.194V115.22ZM473.659 130.135C473.27 130.135 472.937 129.998 472.657 129.723C472.378 129.444 472.238 129.107 472.238 128.714C472.238 128.326 472.378 127.995 472.657 127.72C472.937 127.441 473.27 127.301 473.659 127.301C474.047 127.301 474.381 127.441 474.66 127.72C474.94 127.995 475.079 128.326 475.079 128.714C475.079 128.975 475.013 129.214 474.88 129.432C474.752 129.645 474.582 129.815 474.369 129.943C474.156 130.071 473.919 130.135 473.659 130.135ZM34.3394 178V176.409L39.2613 171.31C39.7869 170.756 40.2201 170.27 40.561 169.854C40.9067 169.432 41.1647 169.032 41.3352 168.653C41.5056 168.275 41.5909 167.872 41.5909 167.446C41.5909 166.963 41.4772 166.546 41.2499 166.196C41.0227 165.841 40.7125 165.569 40.3196 165.379C39.9266 165.185 39.4838 165.088 38.9914 165.088C38.4706 165.088 38.016 165.195 37.6278 165.408C37.2395 165.621 36.9412 165.921 36.7329 166.31C36.5246 166.698 36.4204 167.152 36.4204 167.673H34.3252C34.3252 166.788 34.5288 166.014 34.936 165.351C35.3432 164.688 35.9019 164.174 36.6122 163.81C37.3224 163.44 38.1297 163.256 39.034 163.256C39.9479 163.256 40.7528 163.438 41.4488 163.803C42.1496 164.162 42.6964 164.655 43.0894 165.28C43.4824 165.9 43.6789 166.601 43.6789 167.382C43.6789 167.922 43.5771 168.45 43.3735 168.966C43.1747 169.482 42.8267 170.057 42.3295 170.692C41.8323 171.321 41.141 172.086 40.2556 172.986L37.365 176.011V176.118H43.9133V178H34.3394ZM48.5173 178.135C48.1291 178.135 47.7953 177.998 47.5159 177.723C47.2366 177.444 47.0969 177.107 47.0969 176.714C47.0969 176.326 47.2366 175.995 47.5159 175.72C47.7953 175.441 48.1291 175.301 48.5173 175.301C48.9056 175.301 49.2394 175.441 49.5188 175.72C49.7981 175.995 49.9378 176.326 49.9378 176.714C49.9378 176.975 49.8715 177.214 49.7389 177.432C49.6111 177.645 49.4406 177.815 49.2276 177.943C49.0145 178.071 48.7778 178.135 48.5173 178.135ZM58.96 164.56H67.92V165.92H58.96V164.56ZM63.44 167.12C65.7 167.12 67.34 168.82 67.34 171.26C67.34 173.68 65.7 175.38 63.44 175.38C61.2 175.38 59.56 173.68 59.56 171.26C59.56 168.82 61.2 167.12 63.44 167.12ZM63.44 168.54C62.06 168.54 61.06 169.66 61.06 171.26C61.06 172.86 62.06 173.98 63.44 173.98C64.84 173.98 65.86 172.86 65.86 171.26C65.86 169.66 64.84 168.54 63.44 168.54ZM72.7 161.48H74.3V179.56H72.7V161.48ZM69.82 169.08H73.24V170.46H69.82V169.08ZM68.84 161.88H70.4V178.68H68.84V161.88ZM62.64 162H64.28V165.4H62.64V162ZM89.7784 161.48H91.4384V172.22H89.7784V161.48ZM90.9584 166.18H94.0984V167.56H90.9584V166.18ZM85.6584 172.6C89.3184 172.6 91.5984 173.9 91.5984 176.08C91.5984 178.26 89.3184 179.54 85.6584 179.54C81.9984 179.54 79.7184 178.26 79.7184 176.08C79.7184 173.9 81.9984 172.6 85.6584 172.6ZM85.6584 173.96C82.9784 173.96 81.3384 174.72 81.3384 176.08C81.3384 177.4 82.9784 178.18 85.6584 178.18C88.3384 178.18 89.9784 177.4 89.9784 176.08C89.9784 174.72 88.3384 173.96 85.6584 173.96ZM78.1984 169.44H79.5984C83.3384 169.44 85.4384 169.32 87.8584 168.82L88.0584 170.18C85.5584 170.68 83.4184 170.8 79.5984 170.8H78.1984V169.44ZM78.1984 162.86H86.1784V164.22H79.8384V170.32H78.1984V162.86ZM113.45 161.48H115.11V172.3H113.45V161.48ZM114.65 166.14H117.79V167.54H114.65V166.14ZM108.45 162.8H110.23C110.23 167.44 107.01 170.82 101.79 172.36L101.09 171.02C105.69 169.66 108.45 166.94 108.45 163.56V162.8ZM101.89 162.8H109.39V164.18H101.89V162.8ZM109.45 172.52C113.03 172.52 115.31 173.84 115.31 176.02C115.31 178.2 113.03 179.52 109.45 179.52C105.85 179.52 103.55 178.2 103.55 176.02C103.55 173.84 105.85 172.52 109.45 172.52ZM109.45 173.84C106.85 173.84 105.19 174.66 105.19 176.02C105.19 177.38 106.85 178.2 109.45 178.2C112.05 178.2 113.71 177.38 113.71 176.02C113.71 174.66 112.05 173.84 109.45 173.84ZM125.348 162.78C128.168 162.78 130.188 164.52 130.188 167.04C130.188 169.58 128.168 171.32 125.348 171.32C122.528 171.32 120.488 169.58 120.488 167.04C120.488 164.52 122.528 162.78 125.348 162.78ZM125.348 164.22C123.468 164.22 122.108 165.36 122.108 167.04C122.108 168.72 123.468 169.88 125.348 169.88C127.208 169.88 128.568 168.72 128.568 167.04C128.568 165.36 127.208 164.22 125.348 164.22ZM132.548 161.46H134.208V179.58H132.548V161.46ZM119.808 175.62L119.568 174.24C122.868 174.24 127.428 174.22 131.368 173.6L131.508 174.82C127.448 175.6 123.028 175.62 119.808 175.62ZM140.087 166.9H152.367V168.26H140.087V166.9ZM137.867 170.68H154.267V172.04H137.867V170.68ZM140.087 162.14H141.727V167.58H140.087V162.14ZM139.967 177.76H152.467V179.12H139.967V177.76ZM139.967 173.84H141.607V178.12H139.967V173.84ZM165.758 172.66H167.458V179.56H165.758V172.66ZM171.978 172.66H173.678V179.56H171.978V172.66ZM161.558 171.76H177.958V173.14H161.558V171.76ZM169.718 162.2C173.498 162.2 176.038 163.72 176.038 166.14C176.038 168.54 173.498 170.08 169.718 170.08C165.958 170.08 163.398 168.54 163.398 166.14C163.398 163.72 165.958 162.2 169.718 162.2ZM169.718 163.54C166.958 163.54 165.078 164.56 165.078 166.14C165.078 167.72 166.958 168.74 169.718 168.74C172.478 168.74 174.338 167.72 174.338 166.14C174.338 164.56 172.478 163.54 169.718 163.54ZM184.537 172.08H186.177V176.52H184.537V172.08ZM190.317 172.04H191.937V176.5H190.317V172.04ZM179.977 175.96H196.357V177.34H179.977V175.96ZM181.957 162.82H194.337V168.28H183.657V171.92H182.017V166.96H192.697V164.16H181.957V162.82ZM182.017 171.18H194.757V172.54H182.017V171.18ZM210.988 161.78H212.408V162.58C212.408 165.78 208.928 168.08 205.228 168.68L204.608 167.36C207.848 166.92 210.988 164.92 210.988 162.58V161.78ZM211.248 161.78H212.668V162.58C212.668 164.88 215.848 166.92 219.048 167.36L218.428 168.68C214.748 168.08 211.248 165.72 211.248 162.58V161.78ZM203.648 170.1H219.988V171.46H203.648V170.1ZM211.808 173.12C215.688 173.12 218.008 174.28 218.008 176.32C218.008 178.4 215.688 179.54 211.808 179.54C207.928 179.54 205.608 178.4 205.608 176.32C205.608 174.28 207.928 173.12 211.808 173.12ZM211.808 174.4C208.988 174.4 207.288 175.12 207.288 176.32C207.288 177.56 208.988 178.26 211.808 178.26C214.648 178.26 216.328 177.56 216.328 176.32C216.328 175.12 214.648 174.4 211.808 174.4ZM235.206 161.5H236.886V174.7H235.206V161.5ZM225.266 177.8H237.426V179.16H225.266V177.8ZM225.266 173.34H226.906V178.26H225.266V173.34ZM227.186 162.74C229.886 162.74 231.886 164.58 231.886 167.2C231.886 169.8 229.886 171.66 227.186 171.66C224.486 171.66 222.466 169.8 222.466 167.2C222.466 164.58 224.486 162.74 227.186 162.74ZM227.186 164.18C225.426 164.18 224.086 165.42 224.086 167.2C224.086 168.96 225.426 170.2 227.186 170.2C228.946 170.2 230.286 168.96 230.286 167.2C230.286 165.42 228.946 164.18 227.186 164.18ZM248.625 162.62C252.385 162.62 255.185 164.62 255.185 167.62C255.185 170.64 252.385 172.62 248.625 172.62C244.865 172.62 242.045 170.64 242.045 167.62C242.045 164.62 244.865 162.62 248.625 162.62ZM248.625 163.98C245.765 163.98 243.645 165.44 243.645 167.62C243.645 169.78 245.765 171.26 248.625 171.26C251.485 171.26 253.605 169.78 253.605 167.62C253.605 165.44 251.485 163.98 248.625 163.98ZM240.465 175.78H256.845V177.18H240.465V175.78ZM258.863 175.96H275.243V177.34H258.863V175.96ZM266.183 172.08H267.843V176.54H266.183V172.08ZM260.843 162.82H273.223V168.3H262.543V171.92H260.903V166.96H271.583V164.16H260.843V162.82ZM260.903 171.22H273.643V172.58H260.903V171.22ZM287.355 163.46H288.735V165.3C288.735 168.62 286.695 171.4 283.655 172.5L282.795 171.18C285.515 170.22 287.355 167.88 287.355 165.3V163.46ZM287.675 163.46H289.055V165.3C289.055 167.74 290.935 169.94 293.615 170.84L292.755 172.14C289.755 171.12 287.675 168.48 287.675 165.3V163.46ZM283.235 162.98H293.135V164.32H283.235V162.98ZM295.695 161.5H297.375V174.72H295.695V161.5ZM285.755 177.8H297.915V179.16H285.755V177.8ZM285.755 173.48H287.395V178.4H285.755V173.48ZM314.593 161.48H316.173V172.92H314.593V161.48ZM311.653 166.38H315.073V167.76H311.653V166.38ZM310.733 161.84H312.293V172.28H310.733V161.84ZM300.853 163.64H310.013V164.96H300.853V163.64ZM305.453 165.88C307.713 165.88 309.293 167.12 309.293 168.98C309.293 170.86 307.713 172.08 305.453 172.08C303.173 172.08 301.593 170.86 301.593 168.98C301.593 167.12 303.173 165.88 305.453 165.88ZM305.453 167.12C304.033 167.12 303.073 167.86 303.073 168.98C303.073 170.12 304.033 170.84 305.453 170.84C306.853 170.84 307.813 170.12 307.813 168.98C307.813 167.86 306.853 167.12 305.453 167.12ZM304.633 161.62H306.253V164.38H304.633V161.62ZM310.253 173.24C314.013 173.24 316.273 174.36 316.273 176.38C316.273 178.38 314.013 179.52 310.253 179.52C306.453 179.52 304.213 178.38 304.213 176.38C304.213 174.36 306.453 173.24 310.253 173.24ZM310.253 174.52C307.473 174.52 305.853 175.18 305.853 176.38C305.853 177.58 307.473 178.26 310.253 178.26C312.993 178.26 314.633 177.58 314.633 176.38C314.633 175.18 312.993 174.52 310.253 174.52ZM320.772 169.26H330.032V170.62H320.772V169.26ZM324.472 170.34H326.152V174.5H324.472V170.34ZM320.772 163.18H329.932V164.54H322.432V169.74H320.772V163.18ZM332.412 161.46H334.072V179.58H332.412V161.46ZM319.672 175.66L319.432 174.28C322.972 174.26 327.412 174.22 331.232 173.76L331.372 175C327.412 175.6 323.092 175.68 319.672 175.66ZM342.57 162.86C345.19 162.86 347.07 165.32 347.07 169.16C347.07 173.02 345.19 175.48 342.57 175.48C339.93 175.48 338.07 173.02 338.07 169.16C338.07 165.32 339.93 162.86 342.57 162.86ZM342.57 164.36C340.83 164.36 339.65 166.24 339.65 169.16C339.65 172.1 340.83 174.02 342.57 174.02C344.31 174.02 345.49 172.1 345.49 169.16C345.49 166.24 344.31 164.36 342.57 164.36ZM350.99 161.46H352.63V179.58H350.99V161.46ZM346.53 168.36H351.71V169.72H346.53V168.36ZM368.741 162.12H370.201V163.12C370.201 166.58 366.681 169.06 362.921 169.7L362.261 168.36C365.561 167.86 368.741 165.7 368.741 163.12V162.12ZM369.041 162.12H370.481V163.12C370.481 165.64 373.701 167.86 376.961 168.36L376.301 169.7C372.581 169.06 369.041 166.54 369.041 163.12V162.12ZM368.741 172.68H370.381V179.56H368.741V172.68ZM361.441 171.66H377.781V173.04H361.441V171.66ZM392.2 161.48H393.86V172.3H392.2V161.48ZM393.4 166.14H396.54V167.54H393.4V166.14ZM387.2 162.8H388.98C388.98 167.44 385.76 170.82 380.54 172.36L379.84 171.02C384.44 169.66 387.2 166.94 387.2 163.56V162.8ZM380.64 162.8H388.14V164.18H380.64V162.8ZM388.2 172.52C391.78 172.52 394.06 173.84 394.06 176.02C394.06 178.2 391.78 179.52 388.2 179.52C384.6 179.52 382.3 178.2 382.3 176.02C382.3 173.84 384.6 172.52 388.2 172.52ZM388.2 173.84C385.6 173.84 383.94 174.66 383.94 176.02C383.94 177.38 385.6 178.2 388.2 178.2C390.8 178.2 392.46 177.38 392.46 176.02C392.46 174.66 390.8 173.84 388.2 173.84ZM416.671 161.5H418.351V174.74H416.671V161.5ZM406.731 177.8H418.891V179.16H406.731V177.8ZM406.731 173.52H408.371V178.44H406.731V173.52ZM408.231 162.48H409.611V164.32C409.611 167.84 407.611 170.92 404.571 172.16L403.711 170.82C406.431 169.76 408.231 167.12 408.231 164.32V162.48ZM408.531 162.48H409.891V164.32C409.891 167.04 411.711 169.5 414.411 170.48L413.531 171.82C410.531 170.66 408.531 167.76 408.531 164.32V162.48ZM426.43 164.56H427.79V165.34C427.79 168.48 425.79 171.12 422.77 172.14L421.97 170.84C424.63 169.98 426.43 167.78 426.43 165.34V164.56ZM426.73 164.56H428.09V165.34C428.09 167.58 429.95 169.6 432.61 170.38L431.85 171.68C428.81 170.74 426.73 168.3 426.73 165.34V164.56ZM422.43 163.66H432.07V165H422.43V163.66ZM426.43 161.4H428.09V164.14H426.43V161.4ZM431.53 166.62H435.61V168H431.53V166.62ZM435.13 161.48H436.79V172.42H435.13V161.48ZM430.85 172.9C434.59 172.9 436.87 174.12 436.87 176.22C436.87 178.3 434.59 179.52 430.85 179.52C427.09 179.52 424.81 178.3 424.81 176.22C424.81 174.12 427.09 172.9 430.85 172.9ZM430.85 174.2C428.11 174.2 426.47 174.94 426.47 176.22C426.47 177.48 428.11 178.22 430.85 178.22C433.57 178.22 435.23 177.48 435.23 176.22C435.23 174.94 433.57 174.2 430.85 174.2ZM450.381 163.04H451.741V166.28C451.741 170.44 449.501 174.3 446.541 175.8L445.521 174.44C448.201 173.16 450.381 169.7 450.381 166.28V163.04ZM450.661 163.04H452.021V166.28C452.021 169.58 454.181 172.9 456.861 174.14L455.861 175.46C452.921 174.02 450.661 170.3 450.661 166.28V163.04ZM458.741 161.46H460.401V179.58H458.741V161.46ZM470.013 163.28H478.312V174.98H470.013V163.28ZM476.693 164.62H471.633V173.64H476.693V164.62ZM481.533 161.48H483.213V179.56H481.533V161.48ZM482.813 168.7H486.173V170.1H482.813V168.7ZM500.831 161.46H502.491V179.58H500.831V161.46ZM492.951 162.86C495.631 162.86 497.551 165.32 497.551 169.16C497.551 173.02 495.631 175.48 492.951 175.48C490.291 175.48 488.371 173.02 488.371 169.16C488.371 165.32 490.291 162.86 492.951 162.86ZM492.951 164.36C491.191 164.36 489.951 166.24 489.951 169.16C489.951 172.1 491.191 174.02 492.951 174.02C494.731 174.02 495.951 172.1 495.951 169.16C495.951 166.24 494.731 164.36 492.951 164.36ZM519.949 161.48H521.549V179.56H519.949V161.48ZM513.989 168.36H516.989V169.82H513.989V168.36ZM516.449 161.92H518.029V178.62H516.449V161.92ZM506.269 163.76H514.529V165.12H506.269V163.76ZM506.109 175.12L505.909 173.72C508.249 173.72 512.169 173.64 514.909 173.28L515.029 174.5C512.209 175.04 508.429 175.12 506.109 175.12ZM507.749 164.64H509.269V174.1H507.749V164.64ZM511.509 164.64H513.029V174.1H511.509V164.64ZM537.628 161.46H539.288V179.58H537.628V161.46ZM529.748 162.86C532.428 162.86 534.348 165.32 534.348 169.16C534.348 173.02 532.428 175.48 529.748 175.48C527.088 175.48 525.168 173.02 525.168 169.16C525.168 165.32 527.088 162.86 529.748 162.86ZM529.748 164.36C527.988 164.36 526.748 166.24 526.748 169.16C526.748 172.1 527.988 174.02 529.748 174.02C531.528 174.02 532.748 172.1 532.748 169.16C532.748 166.24 531.528 164.36 529.748 164.36ZM547.686 164.06H549.026V167C549.026 170.82 546.726 174.66 543.846 176.08L542.886 174.76C545.506 173.52 547.686 170.12 547.686 167V164.06ZM548.006 164.06H549.346V167C549.346 170.06 551.526 173.18 554.186 174.32L553.246 175.64C550.326 174.28 548.006 170.76 548.006 167V164.06ZM543.486 163.32H553.586V164.72H543.486V163.32ZM556.026 161.48H557.686V179.56H556.026V161.48ZM568.625 168.5H572.045V169.88H568.625V168.5ZM575.065 161.48H576.665V179.56H575.065V161.48ZM571.485 161.86H573.065V178.66H571.485V161.86ZM565.365 162.98C567.705 162.98 569.225 165.4 569.225 169.28C569.225 173.16 567.705 175.58 565.365 175.58C563.025 175.58 561.525 173.16 561.525 169.28C561.525 165.4 563.025 162.98 565.365 162.98ZM565.365 164.52C563.945 164.52 563.045 166.36 563.045 169.28C563.045 172.2 563.945 174.04 565.365 174.04C566.805 174.04 567.705 172.2 567.705 169.28C567.705 166.36 566.805 164.52 565.365 164.52ZM588.723 167.6H593.763V168.96H588.723V167.6ZM584.363 163.04H585.723V166.26C585.723 170.32 583.583 174.2 580.723 175.74L579.663 174.42C582.323 173.1 584.363 169.62 584.363 166.26V163.04ZM584.683 163.04H586.023V166.26C586.023 169.56 588.063 172.84 590.683 174.08L589.703 175.42C586.783 173.94 584.683 170.22 584.683 166.26V163.04ZM592.943 161.46H594.583V179.58H592.943V161.46ZM676.988 175.96H693.368V177.34H676.988V175.96ZM684.308 172.08H685.968V176.54H684.308V172.08ZM678.968 162.82H691.348V168.3H680.668V171.92H679.028V166.96H689.708V164.16H678.968V162.82ZM679.028 171.22H691.768V172.58H679.028V171.22ZM700.68 175.88H717.06V177.26H700.68V175.88ZM708 171.56H709.66V176.28H708V171.56ZM702.6 162.76H704.24V165.98H713.46V162.76H715.1V172H702.6V162.76ZM704.24 167.32V170.64H713.46V167.32H704.24ZM727.218 165.5H732.678V166.88H727.218V165.5ZM727.218 171.22H732.678V172.6H727.218V171.22ZM723.898 162.86C726.518 162.86 728.398 165.32 728.398 169.16C728.398 173.02 726.518 175.48 723.898 175.48C721.258 175.48 719.398 173.02 719.398 169.16C719.398 165.32 721.258 162.86 723.898 162.86ZM723.898 164.36C722.158 164.36 720.958 166.24 720.958 169.16C720.958 172.1 722.158 174.02 723.898 174.02C725.638 174.02 726.838 172.1 726.838 169.16C726.838 166.24 725.638 164.36 723.898 164.36ZM732.318 161.46H733.958V179.58H732.318V161.46ZM742.277 163.04H743.657V164.42C743.657 167.6 741.577 170.28 738.537 171.32L737.697 170C740.417 169.12 742.277 166.88 742.277 164.42V163.04ZM742.597 163.04H743.977V164.42C743.977 166.76 745.877 168.86 748.537 169.7L747.717 171C744.717 170.02 742.597 167.48 742.597 164.42V163.04ZM738.157 162.66H748.057V164H738.157V162.66ZM750.617 161.48H752.297V171.26H750.617V161.48ZM740.637 172.16H742.277V174.3H750.657V172.16H752.297V179.32H740.637V172.16ZM742.277 175.64V177.96H750.657V175.64H742.277ZM769.015 161.48H770.675V179.56H769.015V161.48ZM757.015 163.24H758.655V174.44H757.015V163.24ZM757.015 173.46H758.495C761.235 173.46 764.095 173.26 767.155 172.62L767.355 174.04C764.215 174.68 761.355 174.9 758.495 174.9H757.015V173.46ZM786.493 161.46H788.173V179.58H786.493V161.46ZM787.773 168.6H791.133V170H787.773V168.6ZM775.033 173.68H776.453C779.793 173.68 782.133 173.56 784.833 173.06L785.013 174.46C782.233 174.98 779.853 175.08 776.453 175.08H775.033V173.68ZM775.033 163.22H783.433V164.58H776.673V174.3H775.033V163.22ZM794.499 178.135C794.11 178.135 793.777 177.998 793.497 177.723C793.218 177.444 793.078 177.107 793.078 176.714C793.078 176.326 793.218 175.995 793.497 175.72C793.777 175.441 794.11 175.301 794.499 175.301C794.887 175.301 795.221 175.441 795.5 175.72C795.779 175.995 795.919 176.326 795.919 176.714C795.919 176.975 795.853 177.214 795.72 177.432C795.592 177.645 795.422 177.815 795.209 177.943C794.996 178.071 794.759 178.135 794.499 178.135ZM57.5685 191.091L59.9762 195.338L62.4052 191.091H64.7276L61.3256 196.545L64.756 202H62.4336L59.9762 197.923L57.5259 202H55.1964L58.5913 196.545L55.239 191.091H57.5685ZM71.3205 192.96H72.9805V196.18H71.3205V192.96ZM79.6205 185.48H81.2805V196.12H79.6205V185.48ZM66.6205 193.52L66.4205 192.28C69.9005 192.28 74.3205 192.26 78.1805 191.82L78.2805 192.9C74.3205 193.48 70.0005 193.52 66.6205 193.52ZM69.1605 196.78H81.2805V200.54H70.8205V202.58H69.2005V199.44H79.6405V197.98H69.1605V196.78ZM69.2005 202.16H81.8805V203.36H69.2005V202.16ZM76.0205 194.08H80.1405V195.16H76.0205V194.08ZM72.2605 185.82C74.9405 185.82 76.7005 186.86 76.7005 188.54C76.7005 190.22 74.9405 191.26 72.2605 191.26C69.5605 191.26 67.8005 190.22 67.8005 188.54C67.8005 186.86 69.5605 185.82 72.2605 185.82ZM72.2605 186.98C70.4805 186.98 69.3405 187.58 69.3405 188.54C69.3405 189.5 70.4805 190.1 72.2605 190.1C74.0005 190.1 75.1405 189.5 75.1405 188.54C75.1405 187.58 74.0005 186.98 72.2605 186.98ZM92.2756 191.091L94.6832 195.338L97.1122 191.091H99.4347L96.0327 196.545L99.4631 202H97.1406L94.6832 197.923L92.233 202H89.9034L93.2983 196.545L89.946 191.091H92.2756ZM106.248 186.14C108.948 186.14 110.928 187.78 110.928 190.16C110.928 192.52 108.948 194.16 106.248 194.16C103.568 194.16 101.588 192.52 101.588 190.16C101.588 187.78 103.568 186.14 106.248 186.14ZM106.248 187.5C104.508 187.5 103.188 188.6 103.188 190.16C103.188 191.72 104.508 192.8 106.248 192.8C108.008 192.8 109.308 191.72 109.308 190.16C109.308 188.6 108.008 187.5 106.248 187.5ZM114.328 185.48H116.008V194.74H114.328V185.48ZM104.308 195.62H116.008V200.02H105.968V202.74H104.348V198.78H114.368V196.96H104.308V195.62ZM104.348 202H116.608V203.32H104.348V202ZM126.983 191.091L129.39 195.338L131.819 191.091H134.142L130.74 196.545L134.17 202H131.848L129.39 197.923L126.94 202H124.61L128.005 196.545L124.653 191.091H126.983ZM139.895 194.78H141.535V200.2H139.895V194.78ZM146.575 194.78H148.235V200.2H146.575V194.78ZM135.895 199.88H152.275V201.26H135.895V199.88ZM144.055 186.62C147.875 186.62 150.615 188.44 150.615 191.28C150.615 194.1 147.875 195.92 144.055 195.92C140.215 195.92 137.475 194.1 137.475 191.28C137.475 188.44 140.215 186.62 144.055 186.62ZM144.055 187.94C141.155 187.94 139.075 189.26 139.075 191.28C139.075 193.28 141.155 194.6 144.055 194.6C146.955 194.6 149.015 193.28 149.015 191.28C149.015 189.26 146.955 187.94 144.055 187.94ZM159.353 186.14C162.053 186.14 164.033 187.78 164.033 190.16C164.033 192.52 162.053 194.16 159.353 194.16C156.673 194.16 154.693 192.52 154.693 190.16C154.693 187.78 156.673 186.14 159.353 186.14ZM159.353 187.5C157.613 187.5 156.293 188.6 156.293 190.16C156.293 191.72 157.613 192.8 159.353 192.8C161.113 192.8 162.413 191.72 162.413 190.16C162.413 188.6 161.113 187.5 159.353 187.5ZM167.433 185.48H169.113V194.74H167.433V185.48ZM157.413 195.62H169.113V200.02H159.073V202.74H157.453V198.78H167.473V196.96H157.413V195.62ZM157.453 202H169.713V203.32H157.453V202ZM191.104 185.46H192.764V203.58H191.104V185.46ZM183.224 186.86C185.904 186.86 187.824 189.32 187.824 193.16C187.824 197.02 185.904 199.48 183.224 199.48C180.564 199.48 178.644 197.02 178.644 193.16C178.644 189.32 180.564 186.86 183.224 186.86ZM183.224 188.36C181.464 188.36 180.224 190.24 180.224 193.16C180.224 196.1 181.464 198.02 183.224 198.02C185.004 198.02 186.224 196.1 186.224 193.16C186.224 190.24 185.004 188.36 183.224 188.36ZM197.223 187.54H211.763V188.88H197.223V187.54ZM196.383 197.2H212.763V198.56H196.383V197.2ZM203.703 198.3H205.363V203.58H203.703V198.3ZM204.543 189.92C208.223 189.92 210.403 191 210.403 192.94C210.403 194.86 208.223 195.96 204.543 195.96C200.843 195.96 198.663 194.86 198.663 192.94C198.663 191 200.843 189.92 204.543 189.92ZM204.543 191.2C201.903 191.2 200.383 191.82 200.383 192.94C200.383 194.06 201.903 194.68 204.543 194.68C207.183 194.68 208.703 194.06 208.703 192.94C208.703 191.82 207.183 191.2 204.543 191.2ZM203.703 185.38H205.363V188.44H203.703V185.38ZM233.214 185.5H234.894V198.74H233.214V185.5ZM223.274 201.8H235.434V203.16H223.274V201.8ZM223.274 197.52H224.914V202.44H223.274V197.52ZM224.774 186.48H226.154V188.32C226.154 191.84 224.154 194.92 221.114 196.16L220.254 194.82C222.974 193.76 224.774 191.12 224.774 188.32V186.48ZM225.074 186.48H226.434V188.32C226.434 191.04 228.254 193.5 230.954 194.48L230.074 195.82C227.074 194.66 225.074 191.76 225.074 188.32V186.48ZM242.973 188.56H244.333V189.34C244.333 192.48 242.333 195.12 239.313 196.14L238.513 194.84C241.173 193.98 242.973 191.78 242.973 189.34V188.56ZM243.273 188.56H244.633V189.34C244.633 191.58 246.493 193.6 249.153 194.38L248.393 195.68C245.353 194.74 243.273 192.3 243.273 189.34V188.56ZM238.973 187.66H248.613V189H238.973V187.66ZM242.973 185.4H244.633V188.14H242.973V185.4ZM248.073 190.62H252.153V192H248.073V190.62ZM251.673 185.48H253.333V196.42H251.673V185.48ZM247.393 196.9C251.133 196.9 253.413 198.12 253.413 200.22C253.413 202.3 251.133 203.52 247.393 203.52C243.633 203.52 241.353 202.3 241.353 200.22C241.353 198.12 243.633 196.9 247.393 196.9ZM247.393 198.2C244.653 198.2 243.013 198.94 243.013 200.22C243.013 201.48 244.653 202.22 247.393 202.22C250.113 202.22 251.773 201.48 251.773 200.22C251.773 198.94 250.113 198.2 247.393 198.2ZM264.191 185.94H265.611V186.82C265.611 190.1 262.151 192.52 258.491 193.16L257.831 191.84C261.031 191.36 264.191 189.24 264.191 186.82V185.94ZM264.451 185.94H265.871V186.82C265.871 189.18 269.071 191.34 272.211 191.82L271.591 193.12C267.931 192.5 264.451 190.02 264.451 186.82V185.94ZM256.851 194.68H273.231V196.04H256.851V194.68ZM264.331 195.52H265.991V199.68H264.331V195.52ZM258.931 201.8H271.411V203.16H258.931V201.8ZM258.931 197.94H260.571V202.24H258.931V197.94ZM283.43 186.62C287.19 186.62 289.99 188.62 289.99 191.62C289.99 194.64 287.19 196.62 283.43 196.62C279.67 196.62 276.85 194.64 276.85 191.62C276.85 188.62 279.67 186.62 283.43 186.62ZM283.43 187.98C280.57 187.98 278.45 189.44 278.45 191.62C278.45 193.78 280.57 195.26 283.43 195.26C286.29 195.26 288.41 193.78 288.41 191.62C288.41 189.44 286.29 187.98 283.43 187.98ZM275.27 199.78H291.65V201.18H275.27V199.78ZM293.668 199.96H310.048V201.34H293.668V199.96ZM300.988 196.08H302.648V200.54H300.988V196.08ZM295.648 186.82H308.028V192.3H297.348V195.92H295.708V190.96H306.388V188.16H295.648V186.82ZM295.708 195.22H308.448V196.58H295.708V195.22ZM324.679 185.78H326.099V186.58C326.099 189.78 322.619 192.08 318.919 192.68L318.299 191.36C321.539 190.92 324.679 188.92 324.679 186.58V185.78ZM324.939 185.78H326.359V186.58C326.359 188.88 329.539 190.92 332.739 191.36L332.119 192.68C328.439 192.08 324.939 189.72 324.939 186.58V185.78ZM317.339 194.1H333.679V195.46H317.339V194.1ZM325.499 197.12C329.379 197.12 331.699 198.28 331.699 200.32C331.699 202.4 329.379 203.54 325.499 203.54C321.619 203.54 319.299 202.4 319.299 200.32C319.299 198.28 321.619 197.12 325.499 197.12ZM325.499 198.4C322.679 198.4 320.979 199.12 320.979 200.32C320.979 201.56 322.679 202.26 325.499 202.26C328.339 202.26 330.019 201.56 330.019 200.32C330.019 199.12 328.339 198.4 325.499 198.4ZM348.898 185.5H350.578V198.7H348.898V185.5ZM338.958 201.8H351.118V203.16H338.958V201.8ZM338.958 197.34H340.598V202.26H338.958V197.34ZM340.878 186.74C343.578 186.74 345.578 188.58 345.578 191.2C345.578 193.8 343.578 195.66 340.878 195.66C338.178 195.66 336.158 193.8 336.158 191.2C336.158 188.58 338.178 186.74 340.878 186.74ZM340.878 188.18C339.118 188.18 337.778 189.42 337.778 191.2C337.778 192.96 339.118 194.2 340.878 194.2C342.638 194.2 343.978 192.96 343.978 191.2C343.978 189.42 342.638 188.18 340.878 188.18ZM360.289 187.54H374.829V188.88H360.289V187.54ZM359.449 197.2H375.829V198.56H359.449V197.2ZM366.769 198.3H368.429V203.58H366.769V198.3ZM367.609 189.92C371.289 189.92 373.469 191 373.469 192.94C373.469 194.86 371.289 195.96 367.609 195.96C363.909 195.96 361.729 194.86 361.729 192.94C361.729 191 363.909 189.92 367.609 189.92ZM367.609 191.2C364.969 191.2 363.449 191.82 363.449 192.94C363.449 194.06 364.969 194.68 367.609 194.68C370.249 194.68 371.769 194.06 371.769 192.94C371.769 191.82 370.249 191.2 367.609 191.2ZM366.769 185.38H368.429V188.44H366.769V185.38ZM383.121 194.72H399.501V196.08H383.121V194.72ZM390.601 195.56H392.261V199.72H390.601V195.56ZM385.221 186.32H397.381V192.68H385.221V186.32ZM395.741 187.66H386.841V191.34H395.741V187.66ZM385.201 201.8H397.681V203.16H385.201V201.8ZM385.201 197.98H386.841V202.28H385.201V197.98ZM405.999 188.06H407.319V191C407.319 194.76 405.019 198.64 402.199 200.08L401.239 198.76C403.819 197.5 405.999 194.06 405.999 191V188.06ZM406.299 188.06H407.619V191C407.619 193.86 409.659 197.08 412.279 198.32L411.339 199.64C408.479 198.22 406.299 194.58 406.299 191V188.06ZM401.879 187.32H411.619V188.72H401.879V187.32ZM413.759 185.48H415.439V203.56H413.759V185.48ZM415.039 192.78H418.399V194.18H415.039V192.78ZM419.918 193.88H436.318V195.14H419.918V193.88ZM421.858 196.6H434.258V200.46H423.558V202.58H421.918V199.32H432.638V197.78H421.858V196.6ZM421.918 202.14H434.838V203.34H421.918V202.14ZM421.998 186H434.198V189.76H423.678V191.72H422.038V188.64H432.578V187.18H421.998V186ZM422.038 191.32H434.538V192.52H422.038V191.32ZM443.629 199.88H460.009V201.26H443.629V199.88ZM450.949 195.56H452.609V200.28H450.949V195.56ZM445.549 186.76H447.189V189.98H456.409V186.76H458.049V196H445.549V186.76ZM447.189 191.32V194.64H456.409V191.32H447.189ZM475.747 185.48H477.347V203.56H475.747V185.48ZM472.707 192.84H476.187V194.2H472.707V192.84ZM471.647 185.88H473.207V202.64H471.647V185.88ZM462.887 187.66H464.547V198.1H462.887V187.66ZM462.887 197.44H464.047C465.907 197.44 467.987 197.32 470.347 196.86L470.527 198.3C468.067 198.78 465.987 198.88 464.047 198.88H462.887V197.44ZM482.486 194.14H494.906V195.5H482.486V194.14ZM480.426 199.74H496.806V201.12H480.426V199.74ZM482.486 187.14H494.726V188.52H484.146V194.74H482.486V187.14ZM499.724 192.98H501.184C504.704 192.98 507.004 192.9 509.804 192.46L509.964 193.76C507.104 194.22 504.764 194.3 501.184 194.3H499.724V192.98ZM499.684 186.34H507.944V190.82H501.344V193.62H499.724V189.6H506.324V187.62H499.684V186.34ZM501.944 195.8H513.644V200.08H503.644V202.64H501.984V198.86H511.964V197.1H501.944V195.8ZM501.984 202.06H514.244V203.36H501.984V202.06ZM511.964 185.48H513.644V194.98H511.964V185.48ZM529.716 189.84H533.236V191.22H529.716V189.84ZM529.716 195.34H533.236V196.72H529.716V195.34ZM536.276 185.48H537.876V203.56H536.276V185.48ZM532.736 185.86H534.296V202.66H532.736V185.86ZM526.576 186.98C528.916 186.98 530.436 189.4 530.436 193.28C530.436 197.16 528.916 199.58 526.576 199.58C524.236 199.58 522.736 197.16 522.736 193.28C522.736 189.4 524.236 186.98 526.576 186.98ZM526.576 188.52C525.156 188.52 524.236 190.36 524.236 193.28C524.236 196.2 525.156 198.04 526.576 198.04C528.016 198.04 528.916 196.2 528.916 193.28C528.916 190.36 528.016 188.52 526.576 188.52ZM550.554 190.16H554.634V191.54H550.554V190.16ZM554.114 185.48H555.774V196.26H554.114V185.48ZM549.834 196.8C553.554 196.8 555.854 198.06 555.854 200.18C555.854 202.32 553.554 203.54 549.834 203.54C546.094 203.54 543.794 202.32 543.794 200.18C543.794 198.06 546.094 196.8 549.834 196.8ZM549.834 198.1C547.114 198.1 545.454 198.86 545.454 200.18C545.454 201.48 547.114 202.24 549.834 202.24C552.554 202.24 554.214 201.48 554.214 200.18C554.214 198.86 552.554 198.1 549.834 198.1ZM545.514 187.3H546.874V188.76C546.874 192.1 544.834 194.96 541.834 196.08L540.974 194.76C543.654 193.78 545.514 191.36 545.514 188.76V187.3ZM545.834 187.3H547.174V188.76C547.174 191.1 548.934 193.34 551.554 194.26L550.714 195.58C547.774 194.52 545.834 191.8 545.834 188.76V187.3ZM541.474 186.8H551.134V188.16H541.474V186.8ZM572.433 185.46H574.093V203.58H572.433V185.46ZM564.553 186.86C567.233 186.86 569.153 189.32 569.153 193.16C569.153 197.02 567.233 199.48 564.553 199.48C561.893 199.48 559.973 197.02 559.973 193.16C559.973 189.32 561.893 186.86 564.553 186.86ZM564.553 188.36C562.793 188.36 561.553 190.24 561.553 193.16C561.553 196.1 562.793 198.02 564.553 198.02C566.333 198.02 567.553 196.1 567.553 193.16C567.553 190.24 566.333 188.36 564.553 188.36ZM590.851 185.48H592.511V203.56H590.851V185.48ZM578.851 187.24H580.491V198.44H578.851V187.24ZM578.851 197.46H580.331C583.071 197.46 585.931 197.26 588.991 196.62L589.191 198.04C586.051 198.68 583.191 198.9 580.331 198.9H578.851V197.46ZM606.122 193.96H607.782V196.28H606.122V193.96ZM613.742 185.5H615.402V197.62H613.742V185.5ZM614.702 190.96H618.042V192.34H614.702V190.96ZM601.502 197.1L601.282 195.74C604.522 195.74 608.922 195.74 612.662 195.2L612.802 196.38C608.942 197.06 604.662 197.08 601.502 197.1ZM603.522 198.52H615.402V203.56H613.742V199.84H603.522V198.52ZM601.742 187.12H612.122V188.36H601.742V187.12ZM606.942 189.06C609.482 189.06 611.142 190.08 611.142 191.74C611.142 193.4 609.482 194.42 606.942 194.42C604.382 194.42 602.722 193.4 602.722 191.74C602.722 190.08 604.382 189.06 606.942 189.06ZM606.942 190.2C605.322 190.2 604.282 190.78 604.282 191.74C604.282 192.66 605.322 193.26 606.942 193.26C608.542 193.26 609.582 192.66 609.582 191.74C609.582 190.78 608.542 190.2 606.942 190.2ZM606.122 185.34H607.782V187.72H606.122V185.34ZM632.941 185.5H634.621V198.7H632.941V185.5ZM623.001 201.8H635.161V203.16H623.001V201.8ZM623.001 197.34H624.641V202.26H623.001V197.34ZM624.921 186.74C627.621 186.74 629.621 188.58 629.621 191.2C629.621 193.8 627.621 195.66 624.921 195.66C622.221 195.66 620.201 193.8 620.201 191.2C620.201 188.58 622.221 186.74 624.921 186.74ZM624.921 188.18C623.161 188.18 621.821 189.42 621.821 191.2C621.821 192.96 623.161 194.2 624.921 194.2C626.681 194.2 628.021 192.96 628.021 191.2C628.021 189.42 626.681 188.18 624.921 188.18ZM643.472 196.18H659.872V197.54H643.472V196.18ZM650.792 196.82H652.432V203.56H650.792V196.82ZM645.532 186.2H647.192V188.68H656.132V186.2H657.772V194.02H645.532V186.2ZM647.192 190.02V192.68H656.132V190.02H647.192ZM662.711 194.12H664.091C667.711 194.12 669.731 194.04 672.151 193.62L672.331 194.96C669.851 195.4 667.771 195.48 664.091 195.48H662.711V194.12ZM662.711 186.7H670.971V188.06H664.351V194.64H662.711V186.7ZM663.831 190.36H670.631V191.7H663.831V190.36ZM674.251 185.48H675.911V196.42H674.251V185.48ZM675.451 190.26H678.591V191.66H675.451V190.26ZM664.171 197.32H675.911V203.56H674.251V198.68H664.171V197.32ZM682.349 194.14H694.769V195.5H682.349V194.14ZM680.289 199.74H696.669V201.12H680.289V199.74ZM682.349 187.14H694.589V188.52H684.009V194.74H682.349V187.14ZM711.828 185.48H713.508V195.42H711.828V185.48ZM699.608 193.68H701.068C704.348 193.68 706.768 193.58 709.668 193.1L709.848 194.48C706.868 194.94 704.428 195.04 701.068 195.04H699.608V193.68ZM699.568 186.36H707.768V191.26H701.228V194.58H699.608V189.96H706.148V187.7H699.568V186.36ZM701.808 196.32H703.448V198.44H711.868V196.32H713.508V203.32H701.808V196.32ZM703.448 199.76V201.96H711.868V199.76H703.448ZM730.226 185.48H731.886V203.56H730.226V185.48ZM718.226 187.24H719.866V198.44H718.226V187.24ZM718.226 197.46H719.706C722.446 197.46 725.306 197.26 728.366 196.62L728.566 198.04C725.426 198.68 722.566 198.9 719.706 198.9H718.226V197.46ZM747.704 185.46H749.384V203.58H747.704V185.46ZM748.984 192.6H752.344V194H748.984V192.6ZM736.244 197.68H737.664C741.004 197.68 743.344 197.56 746.044 197.06L746.224 198.46C743.444 198.98 741.064 199.08 737.664 199.08H736.244V197.68ZM736.244 187.22H744.644V188.58H737.884V198.3H736.244V187.22ZM755.71 202.135C755.321 202.135 754.987 201.998 754.708 201.723C754.429 201.444 754.289 201.107 754.289 200.714C754.289 200.326 754.429 199.995 754.708 199.72C754.987 199.441 755.321 199.301 755.71 199.301C756.098 199.301 756.432 199.441 756.711 199.72C756.99 199.995 757.13 200.326 757.13 200.714C757.13 200.975 757.064 201.214 756.931 201.432C756.803 201.645 756.633 201.815 756.42 201.943C756.207 202.071 755.97 202.135 755.71 202.135Z" fill="black"/>
<path d="M308.273 123.7H309.933V128.2H308.273V123.7ZM309.113 114.66C312.933 114.66 315.673 116.52 315.673 119.4C315.673 122.28 312.933 124.14 309.113 124.14C305.293 124.14 302.533 122.28 302.533 119.4C302.533 116.52 305.293 114.66 309.113 114.66ZM309.113 115.98C306.233 115.98 304.133 117.34 304.133 119.4C304.133 121.46 306.233 122.82 309.113 122.82C311.973 122.82 314.073 121.46 314.073 119.4C314.073 117.34 311.973 115.98 309.113 115.98ZM300.953 127.88H317.333V129.26H300.953V127.88ZM319.352 127.86H335.732V129.24H319.352V127.86ZM320.772 115.28H334.192V116.64H320.772V115.28ZM320.812 122.92H334.172V124.28H320.812V122.92ZM323.592 116.54H325.252V123.06H323.592V116.54ZM329.752 116.54H331.392V123.06H329.752V116.54ZM349.99 113.46H351.65V131.58H349.99V113.46ZM351.25 120.66H354.61V122.06H351.25V120.66ZM338.47 125.84H339.91C343.31 125.84 345.67 125.72 348.41 125.2L348.59 126.58C345.77 127.08 343.37 127.22 339.91 127.22H338.47V125.84ZM338.43 115.16H346.61V121.64H340.11V126.4H338.47V120.28H344.97V116.52H338.43V115.16ZM369.288 113.5H370.968V126.7H369.288V113.5ZM359.348 129.8H371.508V131.16H359.348V129.8ZM359.348 125.34H360.988V130.26H359.348V125.34ZM361.268 114.74C363.968 114.74 365.968 116.58 365.968 119.2C365.968 121.8 363.968 123.66 361.268 123.66C358.568 123.66 356.548 121.8 356.548 119.2C356.548 116.58 358.568 114.74 361.268 114.74ZM361.268 116.18C359.508 116.18 358.168 117.42 358.168 119.2C358.168 120.96 359.508 122.2 361.268 122.2C363.028 122.2 364.368 120.96 364.368 119.2C364.368 117.42 363.028 116.18 361.268 116.18ZM392.2 113.48H393.86V124.3H392.2V113.48ZM393.4 118.14H396.54V119.54H393.4V118.14ZM387.2 114.8H388.98C388.98 119.44 385.76 122.82 380.54 124.36L379.84 123.02C384.44 121.66 387.2 118.94 387.2 115.56V114.8ZM380.64 114.8H388.14V116.18H380.64V114.8ZM388.2 124.52C391.78 124.52 394.06 125.84 394.06 128.02C394.06 130.2 391.78 131.52 388.2 131.52C384.6 131.52 382.3 130.2 382.3 128.02C382.3 125.84 384.6 124.52 388.2 124.52ZM388.2 125.84C385.6 125.84 383.94 126.66 383.94 128.02C383.94 129.38 385.6 130.2 388.2 130.2C390.8 130.2 392.46 129.38 392.46 128.02C392.46 126.66 390.8 125.84 388.2 125.84ZM404.098 114.78C406.918 114.78 408.938 116.52 408.938 119.04C408.938 121.58 406.918 123.32 404.098 123.32C401.278 123.32 399.238 121.58 399.238 119.04C399.238 116.52 401.278 114.78 404.098 114.78ZM404.098 116.22C402.218 116.22 400.858 117.36 400.858 119.04C400.858 120.72 402.218 121.88 404.098 121.88C405.958 121.88 407.318 120.72 407.318 119.04C407.318 117.36 405.958 116.22 404.098 116.22ZM411.298 113.46H412.958V131.58H411.298V113.46ZM398.558 127.62L398.318 126.24C401.618 126.24 406.178 126.22 410.118 125.6L410.258 126.82C406.198 127.6 401.778 127.62 398.558 127.62ZM610.715 161.78H612.135V162.58C612.135 165.78 608.655 168.08 604.955 168.68L604.335 167.36C607.575 166.92 610.715 164.92 610.715 162.58V161.78ZM610.975 161.78H612.395V162.58C612.395 164.88 615.575 166.92 618.775 167.36L618.155 168.68C614.475 168.08 610.975 165.72 610.975 162.58V161.78ZM603.375 170.1H619.715V171.46H603.375V170.1ZM611.535 173.12C615.415 173.12 617.735 174.28 617.735 176.32C617.735 178.4 615.415 179.54 611.535 179.54C607.655 179.54 605.335 178.4 605.335 176.32C605.335 174.28 607.655 173.12 611.535 173.12ZM611.535 174.4C608.715 174.4 607.015 175.12 607.015 176.32C607.015 177.56 608.715 178.26 611.535 178.26C614.375 178.26 616.055 177.56 616.055 176.32C616.055 175.12 614.375 174.4 611.535 174.4ZM634.933 161.5H636.613V174.7H634.933V161.5ZM624.993 177.8H637.153V179.16H624.993V177.8ZM624.993 173.34H626.633V178.26H624.993V173.34ZM626.913 162.74C629.613 162.74 631.613 164.58 631.613 167.2C631.613 169.8 629.613 171.66 626.913 171.66C624.213 171.66 622.193 169.8 622.193 167.2C622.193 164.58 624.213 162.74 626.913 162.74ZM626.913 164.18C625.153 164.18 623.813 165.42 623.813 167.2C623.813 168.96 625.153 170.2 626.913 170.2C628.673 170.2 630.013 168.96 630.013 167.2C630.013 165.42 628.673 164.18 626.913 164.18ZM653.931 161.48H655.531V179.56H653.931V161.48ZM650.871 168.72H654.351V170.1H650.871V168.72ZM649.831 161.88H651.391V178.64H649.831V161.88ZM640.831 173.72H642.011C644.651 173.72 646.451 173.62 648.551 173.18L648.711 174.56C646.551 175.02 644.731 175.1 642.011 175.1H640.831V173.72ZM640.831 163.68H647.551V165.04H642.471V174.34H640.831V163.68ZM671.75 161.48H673.41V179.56H671.75V161.48ZM666.45 163.42H668.09C668.09 168.66 665.73 173.24 659.69 176.2L658.81 174.86C664.03 172.34 666.45 168.5 666.45 163.7V163.42ZM659.63 163.42H667.17V164.78H659.63V163.42Z" fill="#FF0404"/>
<line x1="299" y1="134.5" x2="416" y2="134.5" stroke="#FF0404"/>
<line x1="361" y1="182.5" x2="595" y2="182.5" stroke="black"/>
<line x1="595" y1="182.5" x2="678" y2="182.5" stroke="#FF0404"/>
</svg>
