<svg width="24" height="24" viewBox="0 0 24 24" fill="none" xmlns="http://www.w3.org/2000/svg">
<path d="M6 21V19C6 17.9391 6.42143 16.9217 7.17157 16.1716C7.92172 15.4214 8.93913 15 10 15H10.5M8 7C8 8.06087 8.42143 9.07828 9.17157 9.82843C9.92172 10.5786 10.9391 11 12 11C13.0609 11 14.0783 10.5786 14.8284 9.82843C15.5786 9.07828 16 8.06087 16 7C16 5.93913 15.5786 4.92172 14.8284 4.17157C14.0783 3.42143 13.0609 3 12 3C10.9391 3 9.92172 3.42143 9.17157 4.17157C8.42143 4.92172 8 5.93913 8 7ZM17.8 20.817L15.628 21.955C15.5635 21.9885 15.491 22.0035 15.4186 21.9982C15.3461 21.993 15.2765 21.9677 15.2176 21.9251C15.1587 21.8826 15.1127 21.8245 15.0849 21.7574C15.0571 21.6903 15.0485 21.6167 15.06 21.545L15.475 19.134L13.718 17.427C13.6656 17.3763 13.6284 17.3119 13.6108 17.2411C13.5933 17.1703 13.5959 17.096 13.6186 17.0266C13.6412 16.9573 13.6829 16.8957 13.7388 16.8489C13.7948 16.8021 13.8627 16.772 13.935 16.762L16.363 16.41L17.449 14.217C17.4815 14.1517 17.5315 14.0967 17.5935 14.0583C17.6556 14.0199 17.7271 13.9995 17.8 13.9995C17.8729 13.9995 17.9444 14.0199 18.0065 14.0583C18.0685 14.0967 18.1185 14.1517 18.151 14.217L19.237 16.41L21.665 16.762C21.737 16.7724 21.8047 16.8027 21.8605 16.8495C21.9162 16.8964 21.9577 16.9579 21.9802 17.027C22.0028 17.0962 22.0056 17.1704 21.9882 17.241C21.9709 17.3117 21.9341 17.3761 21.882 17.427L20.125 19.134L20.539 21.544C20.5514 21.6159 20.5434 21.6898 20.516 21.7573C20.4885 21.8249 20.4426 21.8834 20.3836 21.9262C20.3245 21.969 20.2547 21.9944 20.1819 21.9995C20.1092 22.0046 20.0364 21.9892 19.972 21.955L17.8 20.817Z" stroke="#EC9D26" stroke-width="2" stroke-linecap="round" stroke-linejoin="round"/>
</svg>
