<svg width="14" height="15" viewBox="0 0 14 15" fill="none" xmlns="http://www.w3.org/2000/svg">
<path d="M4.99935 13H1.99935C1.64573 13 1.30659 12.8595 1.05654 12.6095C0.806491 12.3594 0.666016 12.0203 0.666016 11.6667V3.66667C0.666016 3.31304 0.806491 2.97391 1.05654 2.72386C1.30659 2.47381 1.64573 2.33333 1.99935 2.33333H9.99935C10.353 2.33333 10.6921 2.47381 10.9422 2.72386C11.1922 2.97391 11.3327 3.31304 11.3327 3.66667V5.66667M8.66602 1V3.66667M3.33268 1V3.66667M0.666016 6.33333H7.33268" stroke="#808080" stroke-linecap="round" stroke-linejoin="round"/>
<path d="M7.33203 11.0007C7.33203 11.7079 7.61298 12.3862 8.11308 12.8863C8.61318 13.3864 9.29145 13.6673 9.9987 13.6673C10.7059 13.6673 11.3842 13.3864 11.8843 12.8863C12.3844 12.3862 12.6654 11.7079 12.6654 11.0007C12.6654 10.2934 12.3844 9.61513 11.8843 9.11503C11.3842 8.61494 10.7059 8.33398 9.9987 8.33398C9.29145 8.33398 8.61318 8.61494 8.11308 9.11503C7.61298 9.61513 7.33203 10.2934 7.33203 11.0007Z" stroke="#808080" stroke-linecap="round" stroke-linejoin="round"/>
<path d="M10 10V11L10.3333 11.3333" stroke="#808080" stroke-linecap="round" stroke-linejoin="round"/>
</svg>
